<?xml version="1.0" encoding="UTF-8" standalone="no"?>
<svg
   xmlns:dc="http://purl.org/dc/elements/1.1/"
   xmlns:cc="http://creativecommons.org/ns#"
   xmlns:rdf="http://www.w3.org/1999/02/22-rdf-syntax-ns#"
   xmlns:svg="http://www.w3.org/2000/svg"
   xmlns="http://www.w3.org/2000/svg"
   xmlns:sodipodi="http://sodipodi.sourceforge.net/DTD/sodipodi-0.dtd"
   xmlns:inkscape="http://www.inkscape.org/namespaces/inkscape"
   inkscape:version="1.0 (4035a4fb49, 2020-05-01)"
   sodipodi:docname="text-indent-left.svg"
   id="svg4"
   version="1.1"
   fill="currentColor"
   viewBox="0 0 16 16"
   height="1em"
   width="1em"
   class="bi bi-text-indent-left">
  <metadata
     id="metadata10">
    <rdf:RDF>
      <cc:Work
         rdf:about="">
        <dc:format>image/svg+xml</dc:format>
        <dc:type
           rdf:resource="http://purl.org/dc/dcmitype/StillImage" />
      </cc:Work>
    </rdf:RDF>
  </metadata>
  <defs
     id="defs8" />
  <sodipodi:namedview
     inkscape:current-layer="svg4"
     inkscape:window-maximized="1"
     inkscape:window-y="-8"
     inkscape:window-x="-8"
     inkscape:cy="8"
     inkscape:cx="8"
     inkscape:zoom="53.125"
     showgrid="false"
     id="namedview6"
     inkscape:window-height="1017"
     inkscape:window-width="1920"
     inkscape:pageshadow="2"
     inkscape:pageopacity="0"
     guidetolerance="10"
     gridtolerance="10"
     objecttolerance="10"
     borderopacity="1"
     bordercolor="#666666"
     pagecolor="#ffffff" />
  <path
     id="path2"
     d="M2 3.5a.5.5 0 0 1 .5-.5h11a.5.5 0 0 1 0 1h-11a.5.5 0 0 1-.5-.5zm.646 2.146a.5.5 0 0 1 .708 0l2 2a.5.5 0 0 1 0 .708l-2 2a.5.5 0 0 1-.708-.708L4.293 8 2.646 6.354a.5.5 0 0 1 0-.708zM7 6.5a.5.5 0 0 1 .5-.5h6a.5.5 0 0 1 0 1h-6a.5.5 0 0 1-.5-.5zm0 3a.5.5 0 0 1 .5-.5h6a.5.5 0 0 1 0 1h-6a.5.5 0 0 1-.5-.5zm-5 3a.5.5 0 0 1 .5-.5h11a.5.5 0 0 1 0 1h-11a.5.5 0 0 1-.5-.5z"
     fill-rule="evenodd" />
  <path
     id="path835"
     d="M 2.3716428,3.9730644 C 2.1619363,3.9089913 2.0149445,3.7145309 2.0149445,3.5011765 c 0,-0.189065 0.111589,-0.3595428 0.2909379,-0.4444742 L 2.4,3.0121325 8,3.012362 c 5.591209,2.291e-4 5.600133,2.896e-4 5.684706,0.038528 0.384955,0.1740525 0.401266,0.6879253 0.02824,0.8895828 l -0.07529,0.040704 -5.6094117,0.00315 c -3.0851765,0.00173 -5.6306431,-0.00334 -5.6565925,-0.011264 z"
     style="fill:#ffffff;stroke-width:0.0188235" />
  <path
     id="path837"
     d="M 2.7951571,10.440446 C 2.6201694,10.358958 2.5174512,10.198898 2.515522,10.004706 2.5133882,9.789924 2.5136051,9.7896563 3.4499073,8.8517647 L 4.3002286,8 3.4499073,7.1482353 C 2.5136051,6.2103437 2.5133882,6.210076 2.515522,5.9952941 2.5168406,5.86257 2.5502472,5.7750331 2.6375082,5.6756483 2.7761951,5.5176926 3.0237819,5.4685178 3.2104218,5.5618582 3.3362663,5.6247942 5.3769862,7.665488 5.4415334,7.7929412 5.4730944,7.855261 5.4844316,7.9099827 5.4844316,8 c 0,0.090017 -0.011337,0.144739 -0.042898,0.2070588 -0.064547,0.1274532 -2.1052671,2.1681472 -2.2311116,2.2310832 -0.125064,0.06255 -0.2840073,0.06343 -0.4152647,0.0023 z"
     style="fill:#ffffff;stroke-width:0.0188235" />
  <path
     id="path839"
     d="M 7.2939806,6.9392695 C 7.1241956,6.8602046 7.0187939,6.6993326 7.0146545,6.5129412 7.0114254,6.3675378 7.0612467,6.2510806 7.1703326,6.1490435 7.3367255,5.9934024 7.075694,6.0047059 10.503529,6.0047059 c 3.365583,0 3.155862,-0.00773 3.307396,0.1219735 0.272492,0.2332429 0.211615,0.6727205 -0.113644,0.8204004 -0.07595,0.034485 -0.177919,0.03563 -3.193752,0.035852 l -3.1152937,2.295e-4 z"
     style="fill:#ffffff;stroke-width:0.0188235" />
  <path
     id="path841"
     d="M 7.3444282,9.9594328 C 7.1458029,9.8908348 7.0138694,9.7051196 7.0155364,9.4964706 7.0170831,9.3028701 7.1200594,9.1417216 7.2939806,9.0607305 l 0.094255,-0.043892 3.1152934,2.295e-4 c 3.015833,2.222e-4 3.117799,0.00137 3.193752,0.035852 0.260403,0.1182327 0.367829,0.4537195 0.22122,0.6908547 C 13.845431,9.8619613 13.728747,9.949119 13.609294,9.974737 13.542184,9.989131 12.603682,9.99511 10.479074,9.994679 7.5825356,9.994093 7.440151,9.992492 7.3444282,9.9594328 Z"
     style="fill:#ffffff;stroke-width:0.0188235" />
  <path
     id="path843"
     d="M 2.3152941,12.94911 C 1.9303387,12.775057 1.9140284,12.261185 2.2870588,12.059527 l 0.075294,-0.0407 H 8 13.637647 l 0.07529,0.0407 c 0.373031,0.201658 0.35672,0.71553 -0.02824,0.889583 -0.08458,0.03824 -0.09325,0.0383 -5.684706,0.0383 -5.5914542,0 -5.6001293,-5.8e-5 -5.6847059,-0.0383 z"
     style="fill:#ffffff;stroke-width:0.0188235" />
</svg>
